<?xml version="1.0" encoding="UTF-8"?>
<svg width="54px" height="54px" viewBox="0 0 54 54" version="1.1" xmlns="http://www.w3.org/2000/svg" xmlns:xlink="http://www.w3.org/1999/xlink">
    <!-- Generator: Sketch 48.1 (47250) - http://www.bohemiancoding.com/sketch -->
    <title>制作报告</title>
    <desc>Created with Sketch.</desc>
    <defs>
        <linearGradient x1="1.46683673%" y1="98.5331633%" x2="100%" y2="0%" id="linearGradient-1">
            <stop stop-color="#1FAEC6" offset="0%"></stop>
            <stop stop-color="#02CEA5" offset="100%"></stop>
        </linearGradient>
    </defs>
    <g id="dmp平台进入首页" stroke="none" stroke-width="1" fill="none" fill-rule="evenodd" transform="translate(-796.000000, -379.000000)">
        <g id="Group-5" transform="translate(713.000000, 313.000000)" fill="url(#linearGradient-1)" fill-rule="nonzero">
            <g id="制作报告" transform="translate(83.000000, 66.000000)">
                <path d="M4,7 L4,39 L49,39 L49,7 L4,7 Z M45.0325651,7 L46.4970312,5.53553391 L47.9614973,7 L49,7 L49,8.03850275 L50.0325651,9.07106781 L49,10.1036329 L49,21 L52,21 L52,41 C52,41.5522847 51.5522847,42 51,42 L2,42 C1.44771525,42 1,41.5522847 1,41 L1,5 C1,4.44771525 1.44771525,4 2,4 L34,4 L34,7 L45.0325651,7 Z M17,48 L37,48 L37,51 L17,51 L17,48 Z M45.0325651,7 L31.1763842,20.8561808 L29.767767,25.800332 L34.7119181,24.3917147 L49,10.1036329 L49,8.03850275 L47.9614973,7 L45.0325651,7 Z M50.0325651,2 L53.568099,5.53553391 L51.4467786,7.65685425 L47.9112447,4.12132034 L50.0325651,2 Z" id="Combined-Shape"></path>
            </g>
        </g>
    </g>
</svg>